<?xml version="1.0" encoding="UTF-8"?>
<svg id="Layer_1" xmlns="http://www.w3.org/2000/svg" version="1.1" viewBox="0 0 1182.8 405.5">
  <!-- Generator: Adobe Illustrator 29.6.1, SVG Export Plug-In . SVG Version: 2.1.1 Build 9)  -->
  <defs>
    <style>
      .st0 {
        fill: #2896fb;
      }

      .st1 {
        fill-rule: evenodd;
      }

      .st1, .st2 {
        fill: #fff;
      }

      .st3 {
        fill: #0b6f26;
      }

      .st4 {
        fill: #1c58a0;
      }

      .st5 {
        fill: #ffd000;
      }

      .st6 {
        fill: #855d19;
      }

      .st7 {
        fill: #17d94b;
      }
    </style>
  </defs>
  <g>
    <path class="st2" d="M1092,143.7v124.3h-23.9v-124.3h23.9Z"/>
    <path class="st1" d="M521.4,171.7c7.1,0,13.3,1.4,18.6,4.3,5.4,2.7,9.6,6.3,12.7,10.8v-13.5h24.1v95.4c0,8.8-1.8,16.6-5.3,23.4-3.5,7-8.8,12.4-15.9,16.4-7.1,4.1-15.6,6.2-25.6,6.2s-24.5-3.1-33.2-9.4c-8.5-6.3-13.4-14.8-14.5-25.6h23.8c1.3,4.3,3.9,7.8,8,10.3,4.2,2.6,9.3,3.9,15.2,3.9s12.6-2.1,16.9-6.3c4.3-4.1,6.5-10.4,6.5-18.8v-14.7c-3.1,4.4-7.4,8.1-12.8,11.1-5.4,3-11.5,4.4-18.5,4.4s-15.3-2.1-21.9-6.2c-6.6-4.1-11.9-9.9-15.7-17.3-3.8-7.5-5.6-16.1-5.6-25.8s1.9-18.1,5.6-25.5c3.9-7.4,9.1-13.1,15.6-17.1,6.6-4,14-6,22.1-6ZM549.3,205.8c2.3,4.1,3.4,9.1,3.4,14.9s-1.1,10.8-3.4,15c-2.3,4.1-5.4,7.3-9.2,9.6-3.9,2.2-8,3.2-12.5,3.2s-8.4-1.1-12.3-3.4c-3.8-2.3-6.8-5.5-9.2-9.7-2.3-4.3-3.4-9.3-3.4-15s1.1-10.6,3.4-14.7c2.4-4.2,5.5-7.4,9.2-9.6,3.8-2.2,7.9-3.2,12.3-3.2s8.6,1.1,12.5,3.4c3.9,2.2,7,5.4,9.2,9.6Z"/>
    <path class="st1" d="M465,173.3v94.7h-23.9v-94.7h23.9Z"/>
    <path class="st2" d="M664.6,176.7c-5.6-3.2-12-4.8-19.1-4.8s-12,1.2-17.1,3.6c-5.1,2.3-9.2,5.5-12.3,9.6v-41.4h-23.9v124.3h23.9v-52.3c0-7.5,1.9-13.3,5.6-17.3,3.9-4.1,9.1-6.2,15.7-6.2s11.6,2.1,15.4,6.2c3.8,4,5.6,9.7,5.6,17.3v52.3h23.9v-55.6c0-8.5-1.6-15.8-4.8-21.9-3.1-6.2-7.4-10.8-13-13.8Z"/>
    <path class="st2" d="M775.5,245.7h-52v-102h-25.4v124.3h77.4v-22.2Z"/>
    <path class="st1" d="M871.8,218.6c0,3.4-.2,6.5-.7,9.2h-69.2c.6,6.8,3,12.2,7.2,16.1,4.2,3.9,9.4,5.8,15.6,5.8,8.9,0,15.2-3.8,19-11.5h25.8c-2.7,9.1-8,16.6-15.7,22.6-7.8,5.8-17.3,8.7-28.6,8.7s-17.3-2-24.6-6c-7.2-4.1-12.8-9.9-16.9-17.3-4-7.4-6-16-6-25.6s2-18.4,6-25.8c4-7.4,9.6-13.1,16.8-17.1,7.2-4,15.4-6,24.8-6s17,1.9,24.1,5.8c7.2,3.9,12.7,9.4,16.6,16.6,4,7.1,6,15.2,6,24.4ZM840.3,197c4.3,3.6,6.6,8.5,6.7,14.7h-45c.9-6.4,3.4-11.3,7.4-14.9,4.1-3.6,9.1-5.5,15-5.5s11.6,1.9,15.9,5.6Z"/>
    <path class="st2" d="M942,173.3l-23.9,72.7-23.9-72.7h-25.6l34.9,94.7h29.1l35-94.7h-25.5Z"/>
    <path class="st1" d="M1058.2,218.6c0,3.4-.2,6.5-.7,9.2h-69.2c.6,6.8,3,12.2,7.2,16.1,4.2,3.9,9.4,5.8,15.6,5.8,8.9,0,15.2-3.8,19-11.5h25.8c-2.7,9.1-8,16.6-15.7,22.6-7.8,5.8-17.3,8.7-28.6,8.7s-17.3-2-24.6-6c-7.2-4.1-12.8-9.9-16.9-17.3-4-7.4-6-16-6-25.6s2-18.4,6-25.8c4-7.4,9.6-13.1,16.8-17.1,7.2-4,15.4-6,24.8-6s17,1.9,24.1,5.8c7.2,3.9,12.7,9.4,16.6,16.6,4,7.1,6,15.2,6,24.4ZM1026.8,197c4.3,3.6,6.6,8.5,6.7,14.7h-45c.9-6.4,3.4-11.3,7.4-14.9,4.1-3.6,9.1-5.5,15-5.5s11.6,1.9,15.9,5.6Z"/>
    <path class="st2" d="M425.4,143.7v124.3h-25.4v-49.4h-49.8v49.4s-25.4,0-25.4,0v-124.3h25.4v51.5s49.8,0,49.8,0v-51.5h25.4Z"/>
    <path class="st1" d="M443,158.6c2.8,2.5,6.2,3.8,10.3,3.8s7.5-1.3,10.1-3.8c2.8-2.7,4.2-5.9,4.2-9.8s-1.4-7.1-4.2-9.6c-2.7-2.7-6-4-10.1-4s-7.5,1.3-10.3,4c-2.7,2.5-4,5.8-4,9.6s1.3,7.1,4,9.8Z"/>
  </g>
  <g>
    <g>
      <polygon class="st7" points="264.4 90.8 219 136.2 249.3 136.2 249.3 268 279.4 268 279.4 161.7 250.7 136.3 279.4 136.3 279.4 136.2 309.8 136.2 264.4 90.8"/>
      <polygon class="st3" points="279.4 136.3 250.7 136.3 279.4 161.7 279.4 136.3"/>
    </g>
    <g>
      <polygon class="st5" points="182.8 136.2 137.4 90.8 92 136.2 122.4 136.2 122.4 267.8 152.5 267.8 152.5 161.5 123.7 136.1 152.5 136.1 152.5 136.2 182.8 136.2"/>
      <polygon class="st6" points="152.5 136.1 123.7 136.1 152.5 161.5 152.5 136.1"/>
    </g>
    <g>
      <polygon class="st0" points="246.3 199.7 200.9 154.3 155.5 199.7 185.9 199.7 185.9 268 216 268 216 225 187.2 199.7 216 199.7 246.3 199.7"/>
      <polygon class="st4" points="216 199.7 187.2 199.7 216 225 216 199.7"/>
    </g>
  </g>
</svg>