<svg xmlns="http://www.w3.org/2000/svg" viewBox="0 0 48 48" role="img" aria-hidden="true">
  <rect width="48" height="48" rx="10" fill="#7AB55C"/>
  <path fill="#5E8E3E" d="M30.5 16.2c-.2-1.8-1.6-2.6-3.4-2.7l-.7 2.1s1.5.2 1.7 1.8c.2 1.6-1.4 2.9-3.8 3.9-2.4 1-5 1.4-5 1.4l-1 3s3-.4 5.8-1.7c4.3-1.9 6.6-4.9 6.5-8z"/>
  <path fill="#fff" d="M22 13.5l-1 3s1.3.3 2.2.8c1 .5 1.6 1.2 1.6 2 0 2.3-2.1 4.3-6 5.9-3.8 1.6-7 1.8-7 1.8l-2 6s4.4-.4 9-2c6.5-2.4 10.5-6 10.3-10.4-.1-2.5-2-3.5-4.4-3.5-.7 0-1.4.1-2 .3l1.2-3.6 2.5-.3z"/>
</svg>
