<?xml version="1.0" encoding="UTF-8"?>
<svg version="1.1" xmlns="http://www.w3.org/2000/svg" width="274" height="274">
<path d="M0 0 C5.29449436 4.10464124 10.43766462 8.47415496 14.75 13.625 C14.75 14.285 14.75 14.945 14.75 15.625 C15.41 15.625 16.07 15.625 16.75 15.625 C18.4519791 17.88426429 20.02247593 20.13335364 21.5625 22.5 C22.01463867 23.19182373 22.46677734 23.88364746 22.93261719 24.59643555 C37.92684765 47.82125353 43.4697545 74.90146329 38.0625 102.125 C32.62571 127.19907867 18.11155792 149.72282952 -3.015625 164.546875 C-20.9214861 176.05160701 -40.02214303 183.06549676 -61.5 182.9375 C-62.50434082 182.93186035 -63.50868164 182.9262207 -64.54345703 182.92041016 C-93.26507635 182.4548535 -118.0276845 169.71638462 -137.84375 149.3359375 C-149.06416635 136.69475414 -157.24339623 121.03098807 -161.25 104.625 C-161.47429687 103.74585938 -161.69859375 102.86671875 -161.9296875 101.9609375 C-167.33193722 76.28175048 -161.96485066 49.07943959 -148.37890625 26.87109375 C-132.71038925 2.98019902 -109.49697648 -12.76079647 -81.70288086 -18.94140625 C-52.82518669 -24.6846394 -23.67716715 -17.22521412 0 0 Z M-127.25 103.625 C-123.44263902 120.01478251 -112.77643632 134.07873548 -98.6953125 143.171875 C-97.48488281 143.89117187 -97.48488281 143.89117187 -96.25 144.625 C-95.48429687 145.08390625 -94.71859375 145.5428125 -93.9296875 146.015625 C-79.09139637 154.14485381 -61.21716954 156.19279161 -44.75 152.4375 C-42.90303206 151.87639582 -41.06862773 151.27208705 -39.25 150.625 C-38.25871094 150.2846875 -37.26742187 149.944375 -36.24609375 149.59375 C-17.11172076 142.36032164 -4.85407909 127.98031007 3.53515625 109.88671875 C5.11740019 106.68143214 5.11740019 106.68143214 3.75 103.625 C3.151875 104.285 2.55375 104.945 1.9375 105.625 C-15.51843602 122.83849246 -39.23520824 130.08297616 -63.25 130.625 C-87.95673684 130.23471162 -108.98896486 119.85703124 -127.25 103.625 Z " fill="#19C695" transform="translate(198.25,55.375)"/>
<path d="M0 0 C0.95755684 -0.00297112 1.91511367 -0.00594224 2.90168738 -0.0090034 C6.11275079 -0.01768025 9.32377687 -0.0191978 12.53485107 -0.02069092 C14.83622823 -0.02531979 17.13760461 -0.03034454 19.4389801 -0.03573608 C25.6932208 -0.04885501 31.94745076 -0.05530401 38.20170307 -0.05974674 C42.10930081 -0.06267815 46.01689562 -0.06678308 49.92449188 -0.07125092 C60.75056475 -0.08335797 71.57663438 -0.09374074 82.40271378 -0.09712601 C83.09516276 -0.09734557 83.78761174 -0.09756514 84.50104402 -0.09779136 C85.19511716 -0.09800964 85.88919031 -0.09822791 86.60429597 -0.09845281 C88.01067241 -0.09889627 89.41704885 -0.09934283 90.82342529 -0.09979248 C91.52103146 -0.10001391 92.21863763 -0.10023534 92.93738338 -0.10046348 C104.23773674 -0.1044104 115.53802558 -0.12186244 126.83835402 -0.145152 C138.44943687 -0.16888823 150.06048417 -0.1810711 161.67159152 -0.18249393 C168.18709711 -0.18354195 174.70251165 -0.18944951 181.21799469 -0.20731354 C187.34769131 -0.223793 193.47722843 -0.22595021 199.60693932 -0.21717453 C201.85429753 -0.21640411 204.10166432 -0.22074751 206.34900093 -0.23063278 C209.4220657 -0.24335539 212.49456579 -0.23747346 215.56762695 -0.22705078 C216.45237363 -0.23510719 217.33712031 -0.24316359 218.24867749 -0.25146413 C225.24743087 -0.19612597 231.31415068 1.20626384 237.35028076 4.82794189 C243.61267331 11.44818545 244.68953164 18.8764018 244.65803528 27.6697998 C244.65931692 28.973496 244.65931692 28.973496 244.66062444 30.3035295 C244.66227383 33.22086751 244.65676669 36.13814823 244.65130615 39.05548096 C244.65102414 41.14471434 244.65118229 43.23394783 244.65174866 45.32318115 C244.65203608 51.00045783 244.64614827 56.67771346 244.6391747 62.35498524 C244.63293196 68.28605353 244.63233663 74.21712229 244.63114929 80.14819336 C244.6280387 91.38200964 244.61982896 102.61581621 244.6097998 113.84962821 C244.59863024 126.63786814 244.59312609 139.42610854 244.58810437 152.21435213 C244.57764614 178.52305411 244.56005193 204.83174746 244.53778076 231.14044189 C243.62307007 230.51577026 243.62307007 230.51577026 242.68988037 229.878479 C241.88558594 229.3345752 241.0812915 228.79067139 240.25262451 228.23028564 C239.45719238 227.69008789 238.66176025 227.14989014 237.84222412 226.59332275 C231.48533528 222.58549931 225.65474869 222.96024118 218.53778076 224.14044189 C217.57678467 224.57743408 217.57678467 224.57743408 216.59637451 225.02325439 C214.53778076 225.14044189 214.53778076 225.14044189 211.74090576 222.83184814 C210.74356913 221.80126695 209.75958038 220.7576378 208.78778076 219.70294189 C208.2811792 219.17378174 207.77457764 218.64462158 207.25262451 218.09942627 C206.00282207 216.79067088 204.76875458 215.4669223 203.53778076 214.14044189 C204.94115091 211.08866872 206.6857054 208.35957895 208.55804443 205.57574463 C226.74594514 178.34144612 233.49866417 145.40050526 227.53778076 113.14044189 C220.77429408 81.65313084 203.69380443 53.11563154 176.53778076 35.14044189 C155.83575287 21.97061219 134.15008191 14.75384248 109.57830811 14.82476807 C107.30519101 14.82791777 105.03339338 14.80442345 102.76043701 14.77911377 C90.1172218 14.72356557 78.10960975 16.39442324 66.16278076 20.76544189 C65.46708984 21.01705078 64.77139893 21.26865967 64.05462646 21.52789307 C39.19200114 30.88797305 18.02384736 47.86687708 3.53778076 70.14044189 C2.67346436 71.46108643 2.67346436 71.46108643 1.79168701 72.80841064 C-1.77594999 78.56907173 -4.62730955 84.49217625 -7.14971924 90.76544189 C-7.55964111 91.75640869 -7.55964111 91.75640869 -7.97784424 92.76739502 C-13.4306286 106.92619499 -15.19738316 121.38659046 -15.02471924 136.45294189 C-15.02045929 137.25582642 -15.01619934 138.05871094 -15.0118103 138.88592529 C-14.91661077 151.82985137 -13.82419905 163.85723737 -9.46221924 176.14044189 C-9.2052124 176.88584229 -8.94820557 177.63124268 -8.68341064 178.39923096 C-3.90976293 191.89672719 2.89223402 204.50560831 12.53778076 215.14044189 C12.53778076 215.80044189 12.53778076 216.46044189 12.53778076 217.14044189 C13.19778076 217.14044189 13.85778076 217.14044189 14.53778076 217.14044189 C15.94793701 218.60919189 15.94793701 218.60919189 17.60028076 220.64044189 C37.90432319 244.4263759 68.02186946 256.4594116 98.58612061 258.99981689 C129.09594471 261.198173 158.34771186 251.61588443 182.53778076 233.14044189 C187.51504708 235.35380863 191.31498257 238.76607313 194.53778076 243.14044189 C194.53778076 246.51544189 194.53778076 246.51544189 193.53778076 250.14044189 C192.98530632 256.61076758 193.34905523 262.37672042 196.53778076 268.14044189 C198.59945337 270.45462481 198.59945337 270.45462481 200.53778076 272.14044189 C200.53778076 272.80044189 200.53778076 273.46044189 200.53778076 274.14044189 C173.06915482 274.2339291 145.60055275 274.3044427 118.1317997 274.34769058 C105.37726139 274.36830605 92.62282199 274.39640741 79.86834717 274.44219971 C68.75011483 274.48209835 57.63195414 274.50788209 46.51365221 274.51679587 C40.62788356 274.52200544 34.74231987 274.53422903 28.85661697 274.56336212 C23.31298975 274.59057883 17.76965128 274.59887415 12.22596359 274.59287262 C10.1951007 274.59397005 8.16422782 274.60188642 6.13342285 274.61726379 C-15.8421607 274.77545559 -15.8421607 274.77545559 -23.04558372 268.83459854 C-29.10440207 262.37299798 -29.90602961 254.57732414 -29.84989929 246.2035675 C-29.85528483 245.23119674 -29.86067037 244.25882597 -29.8662191 243.25698942 C-29.88047417 240.01366408 -29.8734009 236.77074828 -29.86627197 233.52740479 C-29.87197679 231.19602634 -29.87894148 228.86465068 -29.8870697 226.53327942 C-29.90500333 220.21099611 -29.90383233 213.88885159 -29.89812732 207.56655049 C-29.89464456 201.61713884 -29.90260021 195.66774835 -29.90948797 189.71834128 C-29.92320149 177.21578487 -29.91778332 164.71329112 -29.90630276 152.21073615 C-29.89637069 140.78444376 -29.90931255 129.3583133 -29.93323695 117.93204588 C-29.95764623 106.18525341 -29.96723139 94.43853631 -29.96058422 82.691719 C-29.95721419 76.10246847 -29.95963313 69.51335175 -29.97683525 62.92411995 C-29.99230576 56.72784202 -29.98834723 50.53187325 -29.96953011 44.33560753 C-29.96584464 42.06406335 -29.96895139 39.79249627 -29.97941589 37.52097321 C-29.99262984 34.41505996 -29.9810739 31.31016959 -29.96342468 28.20429993 C-29.97302969 27.30992676 -29.9826347 26.4155536 -29.99253076 25.49407822 C-29.90528789 18.00892532 -27.87791636 12.06470684 -23.08721924 6.26544189 C-15.81518197 0.37855458 -8.94534954 -0.00867321 0 0 Z " fill="#18C192" transform="translate(29.46221923828125,-0.14044189453125)"/>
</svg>
