<?xml version="1.0" encoding="UTF-8"?>
<svg version="1.1" xmlns="http://www.w3.org/2000/svg" width="750" height="528">
<path d="M0 0 C2.28394567 -0.00489179 4.56788886 -0.01108293 6.85182786 -0.01845789 C13.114525 -0.03484387 19.37709615 -0.03254215 25.63980722 -0.02708292 C31.70468005 -0.02468567 37.76951206 -0.03633928 43.8343724 -0.04745606 C57.76681825 -0.0723384 71.69922572 -0.0768864 85.63169023 -0.07499009 C96.39265159 -0.07361588 107.15359966 -0.07744023 117.91455841 -0.08491516 C119.46175931 -0.08596551 121.00896022 -0.08701312 122.55616112 -0.08805802 C123.32421262 -0.08857737 124.09226411 -0.08909671 124.8835899 -0.08963179 C125.65306425 -0.09015194 126.4225386 -0.09067208 127.21533036 -0.09120798 C128.3715066 -0.09199397 128.3715066 -0.09199397 129.55103992 -0.09279584 C151.22412954 -0.10737507 172.89721427 -0.11566344 194.57030869 -0.11104584 C195.38700882 -0.11087388 196.20370895 -0.11070193 197.04515757 -0.11052476 C201.18430735 -0.1096359 205.32345711 -0.10869109 209.46260688 -0.10772675 C210.28462175 -0.10753572 211.10663663 -0.10734469 211.95356105 -0.10714786 C213.61587429 -0.10676077 215.27818752 -0.10637044 216.94050075 -0.10597689 C242.8018621 -0.10000785 268.66313394 -0.11544255 294.5244751 -0.14758301 C323.59564234 -0.1836822 352.66675283 -0.20298962 381.73794389 -0.1980443 C384.83945862 -0.19757434 387.94097335 -0.19716408 391.0424881 -0.1967926 C392.18795187 -0.19663902 392.18795187 -0.19663902 393.35655633 -0.19648234 C404.87035707 -0.19528891 416.38409636 -0.20723644 427.89788055 -0.22593689 C440.9974092 -0.24720289 454.0968092 -0.25099421 467.19634363 -0.2316373 C473.87770449 -0.22223805 480.55877778 -0.22132476 487.24013519 -0.24199295 C493.36184126 -0.2607202 499.48308177 -0.25617896 505.60477021 -0.23344713 C507.81398104 -0.22926591 510.02322769 -0.23344514 512.23240063 -0.24704307 C528.27916852 -0.33905216 543.62761688 0.86871171 556.74615479 11.39440918 C556.74615479 12.05440918 556.74615479 12.71440918 556.74615479 13.39440918 C557.31463135 13.45370605 557.88310791 13.51300293 558.46881104 13.57409668 C563.50261386 15.38730181 566.5833362 21.273676 569.74615479 25.39440918 C570.25920166 26.03249512 570.77224854 26.67058105 571.30084229 27.32800293 C578.95986395 37.24667384 581.06308266 49.66720416 581.0068512 61.90621948 C581.01067674 62.80876201 581.01450229 63.71130454 581.01844376 64.64119685 C581.02868285 67.63630641 581.02479904 70.631221 581.02081299 73.62634277 C581.02516449 75.78566158 581.0303491 77.94497884 581.03630066 80.10429382 C581.04965452 85.94937979 581.05027336 91.79440095 581.04773736 97.63949919 C581.04666522 102.52751578 581.05155721 107.41551939 581.05634278 112.3035332 C581.06742542 123.83936899 581.06788233 135.37517221 581.06182861 146.91101074 C581.05578881 158.79322965 581.06810293 170.67533014 581.08939868 182.55752885 C581.10703772 192.77694939 581.11301241 202.99633231 581.10976094 213.2157675 C581.10795166 219.31154517 581.11054882 225.40723835 581.12447548 231.50300217 C581.13708669 237.23717431 581.1350785 242.97116236 581.12206459 248.7053318 C581.11970646 250.80307516 581.12240594 252.90083161 581.13068771 254.99855995 C581.1802432 268.53233029 580.6702893 280.57619903 574.30865479 292.83190918 C573.73244385 293.96499512 573.15623291 295.09808105 572.56256104 296.26550293 C570.82980675 299.25031192 569.06882414 301.84281143 566.74615479 304.39440918 C566.08615479 304.39440918 565.42615479 304.39440918 564.74615479 304.39440918 C564.08615479 305.71440918 563.42615479 307.03440918 562.74615479 308.39440918 C562.08615479 308.39440918 561.42615479 308.39440918 560.74615479 308.39440918 C560.41615479 309.38440918 560.08615479 310.37440918 559.74615479 311.39440918 C544.65203905 324.30227403 527.30019285 325.85273625 508.27813721 325.73498535 C506.34520989 325.73413756 504.41228161 325.73461719 502.47935486 325.73631287 C497.26946083 325.73716829 492.05977697 325.7196163 486.84993148 325.69859099 C481.39138483 325.67974825 475.93283257 325.67806779 470.47425842 325.67451477 C460.15443238 325.66521653 449.83470247 325.64063298 439.51491863 325.6104663 C427.75911073 325.57685292 416.00329809 325.56041888 404.24745405 325.54538 C380.08030114 325.51408133 355.91323337 325.4613643 331.74615479 325.39440918 C332.51322341 327.59234125 333.28498913 329.78863431 334.05865479 331.98425293 C334.4879126 333.20749268 334.91717041 334.43073242 335.35943604 335.69104004 C337.0942314 340.32398209 339.17104636 344.74408558 341.28912354 349.21081543 C343.14386882 353.26340901 344.68751135 357.40062379 346.24615479 361.57409668 C348.54820279 367.5772822 351.19834465 373.44620508 353.80010986 379.32409668 C354.180625 380.19550293 354.56114014 381.06690918 354.95318604 381.96472168 C355.47102661 383.13672119 355.47102661 383.13672119 355.99932861 384.33239746 C356.74615479 386.39440918 356.74615479 386.39440918 356.74615479 389.39440918 C346.75834233 387.42959361 336.8538473 379.78921233 328.05865479 374.83190918 C327.09725586 374.29018066 326.13585693 373.74845215 325.14532471 373.19030762 C319.694047 370.10466109 314.29864115 366.9422974 308.93634033 363.70471191 C306.32294237 362.14121767 303.67469038 360.65575343 300.99615479 359.20690918 C300.13506104 358.73897949 299.27396729 358.2710498 298.38677979 357.78894043 C296.57318543 356.83116945 294.74527877 355.90016641 292.90631104 354.99206543 C289.18301508 353.10970691 285.56153967 351.07800085 281.93365479 349.01940918 C280.51054268 348.21590867 279.08736607 347.41252239 277.66412354 346.60925293 C276.35812016 345.87099608 275.05212918 345.1327173 273.74615479 344.39440918 C268.14798843 341.23504797 262.51730351 338.22751855 256.74615479 335.39440918 C256.74615479 334.73440918 256.74615479 334.07440918 256.74615479 333.39440918 C256.00908672 333.29165869 255.27201866 333.1889082 254.5126152 333.08304405 C251.48500182 332.32940227 249.98491793 331.20010461 247.48278809 329.37625122 C237.9596871 324.09118302 226.52587519 325.59979815 215.96002197 325.68493652 C213.43104249 325.68331344 210.90206352 325.67899565 208.37309265 325.67219543 C202.94049389 325.66319453 197.50839891 325.67212985 192.07585907 325.69709396 C184.20525598 325.73287401 176.33498583 325.73145049 168.46432474 325.72049613 C155.67068512 325.70331798 142.87718154 325.70984917 130.08355713 325.73425293 C129.31914308 325.73570457 128.55472902 325.7371562 127.76715091 325.73865183 C124.670471 325.74456427 121.57379117 325.75051731 118.47711144 325.75652792 C109.96149121 325.77281812 101.44586723 325.78439209 92.93023682 325.79382324 C92.16797597 325.7946742 91.40571512 325.79552516 90.62035546 325.7964019 C77.87677181 325.81005384 65.13322813 325.80771878 52.38964391 325.7957741 C44.54641392 325.78931941 36.70347548 325.79802571 28.86029419 325.82685865 C22.83999332 325.8481144 16.81985946 325.84930507 10.79951668 325.84348106 C8.34180719 325.84453746 5.88408905 325.85241675 3.42642784 325.86785698 C-18.29381468 325.99846185 -37.13613969 323.79781025 -53.65814209 308.2779541 C-61.21933321 300.759358 -66.61828864 291.74789694 -69.25384521 281.39440918 C-69.50417322 280.47625931 -69.75450123 279.55810944 -70.01241493 278.61213684 C-72.63850865 267.95163244 -72.67877114 257.67126895 -72.64202881 246.74987793 C-72.64610188 244.70158612 -72.65144786 242.6532965 -72.65795898 240.60501099 C-72.67155091 235.08022726 -72.66636768 229.55561298 -72.65682173 224.03082657 C-72.64918281 218.2264793 -72.65628243 212.42214574 -72.66098022 206.61779785 C-72.6664255 196.87371234 -72.65927845 187.12969523 -72.6449585 177.38562012 C-72.6286344 166.14863827 -72.63392378 154.91181977 -72.65043771 143.67484188 C-72.66408763 133.99627512 -72.66595513 124.31775729 -72.65812171 114.639184 C-72.65346443 108.87204883 -72.65276649 103.10499024 -72.66273117 97.33786011 C-72.67144973 91.91386714 -72.66529021 86.49008311 -72.6480484 81.06611252 C-72.64410954 79.08531413 -72.64517251 77.10449791 -72.6518364 75.12370682 C-72.72460409 51.28080512 -68.24982442 31.95223893 -51.25384521 14.39440918 C-46.86360131 10.39440918 -46.86360131 10.39440918 -43.25384521 10.39440918 C-43.25384521 9.73440918 -43.25384521 9.07440918 -43.25384521 8.39440918 C-41.82390198 7.6096464 -40.38422749 6.84262005 -38.94134521 6.08190918 C-37.7405835 5.43802246 -37.7405835 5.43802246 -36.51556396 4.78112793 C-24.47624359 -0.33738552 -12.87097039 -0.03406495 0 0 Z " fill="#7D54B0" transform="translate(118.25384521484375,81.6055908203125)"/>
<path d="M0 0 C7.1676006 0.13472933 12.50020312 2.9042302 17.71484375 7.703125 C22.83122724 13.07736336 23.50200733 18.62439544 23.3984375 25.75 C23.09648952 29.32864273 21.81729134 32.11812484 20.1875 35.25 C6.46547257 63.443246 -0.33305627 95.58656443 -4.31616211 126.57055664 C-4.78457372 130.04297736 -5.30922957 133.50153722 -5.84817505 136.96343994 C-7.52117567 147.78248575 -8.87467717 158.6047519 -9.9375 169.5 C-10.02443115 170.37043945 -10.1113623 171.24087891 -10.20092773 172.13769531 C-11.90722349 189.55476013 -12.32900417 206.94013673 -12.30908203 224.43457031 C-12.31797958 225.90666962 -12.31797958 225.90666962 -12.32705688 227.4085083 C-12.33775427 229.22940976 -12.33311624 231.05050462 -12.30892944 232.87127686 C-12.36597495 239.62470775 -13.72819848 246.62360588 -18.2244873 251.91015625 C-23.22786917 256.30458046 -27.96368262 257.74212317 -34.484375 257.55859375 C-46.63651551 255.94782345 -54.80742691 244.11733724 -61.8125 235.25 C-62.4828125 234.45722656 -63.153125 233.66445313 -63.84375 232.84765625 C-85.62180667 206.87818788 -99.2525535 171.60681522 -108.07299805 139.20556641 C-108.63265297 137.05724626 -108.63265297 137.05724626 -110.8125 136.25 C-110.92295654 137.22296021 -110.92295654 137.22296021 -111.03564453 138.21557617 C-112.12005783 142.45133133 -114.15458058 145.97805518 -116.2421875 149.80078125 C-117.15889925 151.51033458 -118.07388458 153.22081458 -118.98730469 154.93212891 C-119.69203918 156.25111176 -119.69203918 156.25111176 -120.41101074 157.59674072 C-122.63016014 161.79797073 -124.76129426 166.04179371 -126.8828125 170.29296875 C-127.29932068 171.12700226 -127.71582886 171.96103577 -128.1449585 172.82034302 C-129.41074354 175.35859955 -130.6742106 177.89800063 -131.9375 180.4375 C-132.78756623 182.14267495 -133.63782642 183.84775321 -134.48828125 185.55273438 C-137.6855552 191.96411856 -140.881664 198.37607193 -144.06933594 204.79223633 C-144.77274621 206.20526092 -145.47619468 207.6182665 -146.1796875 209.03125 C-146.4897171 209.65682297 -146.7997467 210.28239594 -147.11917114 210.92692566 C-166.08711153 248.98406178 -166.08711153 248.98406178 -182.6875 256.5625 C-187.30987023 257.57942145 -190.69836753 257.5595306 -194.82421875 255.00390625 C-204.5758819 247.25829952 -208.03763703 235.52310699 -211.4375 224 C-211.80617187 222.79214844 -212.17484375 221.58429688 -212.5546875 220.33984375 C-217.02208138 205.56912947 -220.73941104 190.65866788 -224.1875 175.625 C-224.47914032 174.35774078 -224.47914032 174.35774078 -224.77667236 173.06488037 C-229.33708307 153.22506521 -233.70222702 133.3417004 -237.1015625 113.265625 C-237.8996044 108.6346688 -238.86478637 104.03967153 -239.8125 99.4375 C-241.30747028 92.11710792 -242.54574943 84.79619443 -243.59106445 77.39892578 C-244.3303738 72.24519686 -245.17913243 67.12299775 -246.109375 62 C-246.33826416 60.72954834 -246.56715332 59.45909668 -246.80297852 58.15014648 C-247.25508141 55.6609677 -247.71598079 53.17336436 -248.18725586 50.68774414 C-252.12131929 28.90036106 -252.12131929 28.90036106 -246.5078125 20.19140625 C-241.9843791 15.01134542 -236.37498859 11.65348539 -229.515625 11.046875 C-222.69955872 10.9166317 -217.38268542 11.51859308 -211.8671875 15.73828125 C-205.93861836 21.53041888 -204.97512373 28.33117698 -203.8125 36.25 C-203.60338153 37.58862253 -203.39373115 38.92716205 -203.18359375 40.265625 C-202.69397978 43.4470452 -202.22452057 46.63098233 -201.76171875 49.81640625 C-200.62308228 57.59901867 -199.42238997 65.37186258 -198.20864868 73.14306641 C-197.94781282 74.81839579 -197.6887931 76.49400911 -197.43173218 78.16992188 C-196.08510635 86.94499988 -194.61247895 95.60424871 -192.52246094 104.23950195 C-191.32096376 109.33429619 -190.39548365 114.47991909 -189.4375 119.625 C-186.35062088 135.92381624 -183.05610552 152.2071011 -178.8125 168.25 C-176.39652601 165.21657054 -174.60286502 162.10882453 -172.84375 158.65625 C-172.2780127 157.55321533 -171.71227539 156.45018066 -171.12939453 155.3137207 C-170.83309143 154.73240387 -170.53678833 154.15108704 -170.23150635 153.55215454 C-165.60459449 144.47886551 -160.89595594 135.46011472 -155.9375 126.5625 C-152.30529331 120.04288568 -148.87038572 113.46294559 -145.58837891 106.76074219 C-143.65255042 102.83722376 -141.57216675 99.06334323 -139.3125 95.3125 C-136.5305101 90.66116395 -134.19299496 85.91861616 -131.9375 81 C-118.19761462 51.18102551 -118.19761462 51.18102551 -107.9296875 45.91015625 C-102.17639739 44.11623369 -95.3204077 44.06000727 -89.875 46.8125 C-80.08199969 54.60692882 -78.51671095 65.69284531 -76.75 77.5 C-76.43116583 79.6101956 -76.10712982 81.71961324 -75.77734375 83.828125 C-75.6393335 84.75012695 -75.50132324 85.67212891 -75.35913086 86.62207031 C-74.79366999 89.34052536 -73.87674963 91.69168707 -72.8125 94.25 C-72.26968475 97.16511892 -71.87238127 100.08174642 -71.47265625 103.01953125 C-70.81433338 106.24102838 -69.80712878 109.02994039 -68.61303711 112.07836914 C-67.16913961 115.99525486 -66.15619751 120.03680252 -65.0625 124.0625 C-62.2061967 134.35015775 -58.65779273 144.29547 -54.8125 154.25 C-54.68721924 153.24549805 -54.56193848 152.24099609 -54.43286133 151.20605469 C-38.50684654 24.15995623 -38.50684654 24.15995623 -12.6875 3.5625 C-8.36132531 0.73639737 -5.12209894 0.33587534 0 0 Z " fill="#FDFDFE" transform="translate(329.8125,117.75)"/>
<path d="M0 0 C16.3586327 11.65515603 26.43412229 29.79450433 30.375 49.3125 C33.25791792 69.31148302 32.68296508 90.82088459 27.375 110.3125 C27.00826766 111.78755011 26.64237851 113.26281012 26.27734375 114.73828125 C23.62314393 124.97214198 19.45549449 134.07095661 14.375 143.3125 C13.48941406 144.95412109 13.48941406 144.95412109 12.5859375 146.62890625 C8.79311072 153.40923358 4.50028099 159.47564153 -0.625 165.3125 C-1.64013672 166.47072266 -1.64013672 166.47072266 -2.67578125 167.65234375 C-14.82038714 180.64063342 -30.44237363 187.36919813 -47.97265625 188.53515625 C-65.83349715 188.99828967 -82.13070802 184.21391985 -95.6875 172.4375 C-100.3980476 167.81862473 -104.18799428 162.9311819 -107.625 157.3125 C-108.14707031 156.50683594 -108.66914063 155.70117188 -109.20703125 154.87109375 C-113.79752232 147.25901363 -116.00806262 139.07888115 -118.08935547 130.50830078 C-118.43546266 129.08948217 -118.80289967 127.67562221 -119.19580078 126.26904297 C-121.05252585 119.14247087 -121.01034109 112.01618648 -121 104.6875 C-120.99912384 104.00675415 -120.99824768 103.3260083 -120.99734497 102.62463379 C-120.85028543 67.8005269 -109.13665439 33.4445874 -84.58203125 8.109375 C-77.17392259 0.85835515 -68.46945836 -4.45499128 -58.625 -7.6875 C-57.91988281 -7.98398438 -57.21476562 -8.28046875 -56.48828125 -8.5859375 C-38.45784602 -15.44568424 -15.78161474 -9.81843869 0 0 Z " fill="#FDFDFE" transform="translate(468.625,157.6875)"/>
<path d="M0 0 C11.02177661 8.70157779 18.11600914 19.88310405 23.36279297 32.79980469 C23.80751953 33.84587891 23.80751953 33.84587891 24.26123047 34.91308594 C35.08471855 61.65031638 30.80345813 97.69814177 20.36279297 123.79980469 C20.1169043 124.43257324 19.87101563 125.0653418 19.61767578 125.71728516 C10.22943976 149.65905394 -4.71391618 171.30555824 -28.48095703 182.54589844 C-45.8967094 189.46478026 -65.35986793 188.26325547 -82.52001953 181.28808594 C-89.45866872 177.97527223 -95.48483393 173.5091911 -100.63720703 167.79980469 C-101.17861328 167.2390625 -101.72001953 166.67832031 -102.27783203 166.10058594 C-122.10198268 144.85426796 -123.70997563 115.91086868 -122.81005859 88.46191406 C-122.24322903 76.45281309 -119.62881122 65.13596058 -115.63720703 53.79980469 C-115.31365234 52.80335938 -114.99009766 51.80691406 -114.65673828 50.78027344 C-109.55280939 36.13181326 -101.15222163 22.18476654 -90.63720703 10.79980469 C-89.56212891 9.60484375 -89.56212891 9.60484375 -88.46533203 8.38574219 C-65.80372376 -15.6419914 -26.89578904 -19.71662674 0 0 Z " fill="#FDFDFE" transform="translate(636.63720703125,159.2001953125)"/>
<path d="M0 0 C9.33512592 6.08450171 12.9162546 16.00342507 15.99975586 26.31835938 C20.29494141 47.11156102 15.16184346 70.79383228 4.28515625 88.64453125 C-1.43501923 97.29130814 -8.57834675 104.05304127 -18.5625 107.4375 C-23.35755549 108.09102579 -27.36502993 107.96715022 -31.8125 106 C-41.9300623 96.57227149 -46.20339016 82.17998589 -46.8359375 68.63671875 C-47.41900673 46.3707627 -41.2064768 24.96583416 -25.5625 8.4375 C-18.33647673 1.14212909 -10.48915252 -4.60050549 0 0 Z " fill="#8056B2" transform="translate(604.5625,192.5625)"/>
<path d="M0 0 C1.08925781 -0.03996094 2.17851562 -0.07992187 3.30078125 -0.12109375 C7.78120003 0.61789112 10.4846339 2.24737675 13.6875 5.4375 C15.44910374 7.93302059 16.73680609 10.53710476 18 13.3125 C18.49983398 14.33537109 18.49983398 14.33537109 19.00976562 15.37890625 C26.3557583 30.77469928 26.51781185 53.86730717 21.078125 70.12890625 C14.59141429 85.56217582 7.43612732 98.91048482 -7.6875 107.3125 C-13.22664699 109.03154562 -18.55099626 109.44168318 -24.0625 107.4375 C-33.84435056 98.74252173 -38.57121316 85.28244738 -39.44970703 72.43017578 C-40.66870572 49.04478257 -33.9851489 27.16154274 -18.3125 9.4375 C-12.60689317 3.70159791 -8.30974778 0.16599966 0 0 Z " fill="#8056B2" transform="translate(431.3125,191.5625)"/>
<path d="M0 0 C0.99 0.33 1.98 0.66 3 1 C3.94921875 3.72265625 3.94921875 3.72265625 4.6875 7.0625 C5.06455078 8.71958984 5.06455078 8.71958984 5.44921875 10.41015625 C5.63097656 11.26480469 5.81273437 12.11945313 6 13 C5.34 13 4.68 13 4 13 C3.34 10.69 2.68 8.38 2 6 C1.34 6 0.68 6 0 6 C0 6.66 0 7.32 0 8 C-0.66 8 -1.32 8 -2 8 C-2.33 9.65 -2.66 11.3 -3 13 C-3.66 12.67 -4.32 12.34 -5 12 C-3.68938409 7.76570244 -2.05643741 3.92592596 0 0 Z " fill="#9071B4" transform="translate(219,254)"/>
<path d="M0 0 C0.66 0.33 1.32 0.66 2 1 C0.29963138 2.92426057 -1.40967409 4.83914471 -3.125 6.75 C-3.599375 7.28882812 -4.07375 7.82765625 -4.5625 8.3828125 C-7.75719981 11.92288526 -10.92897015 14.5114773 -15 17 C-11.97204597 10.16769346 -6.003649 4.31512272 0 0 Z " fill="#3B2752" transform="translate(72,92)"/>
<path d="M0 0 C1.09944663 4.39778651 0.68757507 7.85506222 0.0625 12.25 C-0.08735352 13.36761719 -0.08735352 13.36761719 -0.24023438 14.5078125 C-0.48680156 16.33945442 -0.74250391 18.16986251 -1 20 C-3.03819846 17.96180154 -3.67841059 16.70582202 -4.6875 14.0625 C-5.09548828 13.02802734 -5.09548828 13.02802734 -5.51171875 11.97265625 C-6 10 -6 10 -5 7 C-4.34 8.32 -3.68 9.64 -3 11 C-2.01 7.37 -1.02 3.74 0 0 Z " fill="#8B6CAF" transform="translate(277,254)"/>
<path d="M0 0 C3.28670403 3.28670403 5 7.35868331 5 12 C0.80639551 11.32902328 -2.40334352 9.1441606 -6 7 C-5.34 6.67 -4.68 6.34 -4 6 C-1.375 6.9375 -1.375 6.9375 1 8 C0.67 5.36 0.34 2.72 0 0 Z " fill="#291B39" transform="translate(470,459)"/>
<path d="M0 0 C0.66 0.33 1.32 0.66 2 1 C-0.97 3.97 -3.94 6.94 -7 10 C-7.33 9.34 -7.66 8.68 -8 8 C-5.58443874 4.80800833 -3.31996462 2.25283313 0 0 Z " fill="#EDE0F6" transform="translate(319,120)"/>
<path d="M0 0 C0.33 0 0.66 0 1 0 C1.36625971 4.51720311 1.36625971 4.51720311 -0.375 6.8125 C-2 8 -2 8 -4 8 C-2.87548273 5.0280615 -1.77706209 2.66559313 0 0 Z " fill="#8B6FB5" transform="translate(574,207)"/>
<path d="M0 0 C0.66 1.32 1.32 2.64 2 4 C1.01 4.33 0.02 4.66 -1 5 C-1.3721042 6.32303717 -1.70630173 7.65737935 -2 9 C-2.99 9.495 -2.99 9.495 -4 10 C-2.8905928 6.51329166 -1.73662334 3.22515763 0 0 Z " fill="#9474B9" transform="translate(209,274)"/>
<path d="M0 0 C0.33 0 0.66 0 1 0 C1.36923077 6.52307692 1.36923077 6.52307692 -0.5 8.9375 C-0.995 9.288125 -1.49 9.63875 -2 10 C-1.125 2.25 -1.125 2.25 0 0 Z " fill="#9072B5" transform="translate(664,256)"/>
<path d="M0 0 C0.33 0 0.66 0 1 0 C0.67 2.97 0.34 5.94 0 9 C-0.66 9 -1.32 9 -2 9 C-1.125 1.125 -1.125 1.125 0 0 Z " fill="#8D6BB2" transform="translate(334,199)"/>
</svg>
